# 3ds Max Wavefront OBJ Exporter v0.97b - (c)2007 guruware
# File Created: 11.12.2018 14:27:32

mtllib Cglink247_Duy_Ground_0001.mtl

#
# object Cglink247_Duy_Ground_0001
#

v  -25.0000 1.0000 25.0000
v  -25.0000 0.0000 -25.0000
v  -25.0000 0.0000 25.0000
v  -25.0000 1.0000 -25.0000
v  25.0000 0.0000 25.0000
v  25.0000 0.0000 -25.0000
v  25.0000 1.0000 25.0000
v  25.0000 1.0000 -25.0000
# 8 vertices

vn -1.0000 0.0000 -0.0000
vn 1.0000 0.0000 -0.0000
vn 0.0000 0.0000 1.0000
vn 0.0000 0.0000 -1.0000
vn 0.0000 -1.0000 -0.0000
vn 0.0000 1.0000 -0.0000
# 6 vertex normals

vt 0.9707 0.5000 0.0000
# 1 texture coords

g Cglink247_Duy_Ground_0001
usemtl palette
s 1
f 1/1/1 2/1/1 3/1/1 
f 4/1/1 2/1/1 1/1/1 
f 5/1/2 6/1/2 7/1/2 
f 7/1/2 6/1/2 8/1/2 
f 5/1/3 1/1/3 3/1/3 
f 7/1/3 1/1/3 5/1/3 
f 2/1/4 4/1/4 6/1/4 
f 6/1/4 4/1/4 8/1/4 
f 2/1/5 5/1/5 3/1/5 
f 6/1/5 5/1/5 2/1/5 
f 1/1/6 7/1/6 4/1/6 
f 4/1/6 7/1/6 8/1/6 
# 0 polygons - 12 triangles

