# Blender v3.1.2 OBJ File: ''
# www.blender.org
o Rectangle
v -12.883484 18.338865 24.223732
v 12.883484 18.338865 24.223732
v 12.883484 18.871967 24.223732
v -12.883484 18.871967 24.223732
v 12.883484 18.871975 -24.223724
v -12.883484 18.871975 -24.223724
v 12.883484 18.338873 -24.223724
v -12.883484 18.338873 -24.223724
vt 0.625000 0.000000
vt 0.375000 0.250000
vt 0.375000 0.000000
vt 0.625000 0.250000
vt 0.375000 0.500000
vt 0.625000 0.500000
vt 0.375000 0.750000
vt 0.625000 0.750000
vt 0.375000 1.000000
vt 0.875000 0.000000
vt 0.125000 0.250000
vt 0.125000 0.000000
vt 0.625000 1.000000
vt 0.875000 0.250000
vn 0.0000 0.0000 1.0000
vn 0.0000 1.0000 0.0000
vn 0.0000 0.0000 -1.0000
vn 0.0000 -1.0000 -0.0000
vn 1.0000 0.0000 0.0000
vn -1.0000 0.0000 0.0000
s 1
f 2/1/1 4/2/1 1/3/1
f 3/4/2 6/5/2 4/2/2
f 5/6/3 8/7/3 6/5/3
f 7/8/4 1/9/4 8/7/4
f 7/10/5 3/4/5 2/1/5
f 1/3/6 6/11/6 8/12/6
f 2/1/1 3/4/1 4/2/1
f 3/4/2 5/6/2 6/5/2
f 5/6/3 7/8/3 8/7/3
f 7/8/4 2/13/4 1/9/4
f 7/10/5 5/14/5 3/4/5
f 1/3/6 4/2/6 6/11/6
o Rectangle.001
v -12.883484 18.338865 24.223732
v 12.883484 18.338865 24.223732
v 12.883484 18.871967 24.223732
v -12.883484 18.871967 24.223732
v 12.883484 18.871975 -24.223724
v -12.883484 18.871975 -24.223724
v 12.883484 18.338873 -24.223724
v -12.883484 18.338873 -24.223724
vt 0.625000 0.000000
vt 0.375000 0.250000
vt 0.375000 0.000000
vt 0.625000 0.250000
vt 0.375000 0.500000
vt 0.625000 0.500000
vt 0.375000 0.750000
vt 0.625000 0.750000
vt 0.375000 1.000000
vt 0.875000 0.000000
vt 0.125000 0.250000
vt 0.125000 0.000000
vt 0.625000 1.000000
vt 0.875000 0.250000
vn 0.0000 0.0000 1.0000
vn 0.0000 1.0000 0.0000
vn 0.0000 0.0000 -1.0000
vn 0.0000 -1.0000 -0.0000
vn 1.0000 0.0000 0.0000
vn -1.0000 0.0000 0.0000
s 1
f 10/15/7 12/16/7 9/17/7
f 11/18/8 14/19/8 12/16/8
f 13/20/9 16/21/9 14/19/9
f 15/22/10 9/23/10 16/21/10
f 15/24/11 11/18/11 10/15/11
f 9/17/12 14/25/12 16/26/12
f 10/15/7 11/18/7 12/16/7
f 11/18/8 13/20/8 14/19/8
f 13/20/9 15/22/9 16/21/9
f 15/22/10 10/27/10 9/23/10
f 15/24/11 13/28/11 11/18/11
f 9/17/12 12/16/12 14/25/12
